HIERARCHY
ROOT Hips
{
	OFFSET 0.000000 0.000000 0.000000
	CHANNELS 6 Xposition Yposition Zposition Zrotation Yrotation Xrotation 
	JOINT LHipJoint
	{
		OFFSET 0.000000 0.000000 0.000000
		CHANNELS 3 Zrotation Yrotation Xrotation
		JOINT LeftUpLeg
		{
			OFFSET 1.363060 -1.794630 0.839290
			CHANNELS 3 Zrotation Yrotation Xrotation
			JOINT LeftLeg
			{
				OFFSET 2.448110 -6.726130 0.000000
				CHANNELS 3 Zrotation Yrotation Xrotation
				JOINT LeftFoot
				{
					OFFSET 2.562200 -7.039590 0.000000
					CHANNELS 3 Zrotation Yrotation Xrotation
					JOINT LeftToeBase
					{
						OFFSET 0.157640 -0.433110 2.322550
						CHANNELS 3 Zrotation Yrotation Xrotation
						End Site
						{
							OFFSET 0.000000 0.000000 0.000000
						}
					}
				}
			}
		}
	}
	JOINT RHipJoint
	{
		OFFSET 0.000000 0.000000 0.000000
		CHANNELS 3 Zrotation Yrotation Xrotation
		JOINT RightUpLeg
		{
			OFFSET -1.305520 -1.794630 0.839290
			CHANNELS 3 Zrotation Yrotation Xrotation
			JOINT RightLeg
			{
				OFFSET -2.542530 -6.985550 0.000000
				CHANNELS 3 Zrotation Yrotation Xrotation
				JOINT RightFoot
				{
					OFFSET -2.568260 -7.056230 0.000000
					CHANNELS 3 Zrotation Yrotation Xrotation
					JOINT RightToeBase
					{
						OFFSET -0.164730 -0.452590 2.363150
						CHANNELS 3 Zrotation Yrotation Xrotation
						End Site
						{
							OFFSET 0.000000 0.000000 0.000000
						}
					}
				}
			}
		}
	}
	JOINT LowerBack
	{
		OFFSET 0.000000 0.000000 0.000000
		CHANNELS 3 Zrotation Yrotation Xrotation
		JOINT Spine
		{
			OFFSET 0.028270 2.035590 -0.193380
			CHANNELS 3 Zrotation Yrotation Xrotation
			JOINT Spine1
			{
				OFFSET 0.056720 2.048850 -0.042750
				CHANNELS 3 Zrotation Yrotation Xrotation
				JOINT Neck
				{
					OFFSET 0.000000 0.000000 0.000000
					CHANNELS 3 Zrotation Yrotation Xrotation
					JOINT Neck1
					{
						OFFSET -0.054170 1.746240 0.172020
						CHANNELS 3 Zrotation Yrotation Xrotation
						JOINT Head
						{
							OFFSET 0.104070 1.761360 -0.123970
							CHANNELS 3 Zrotation Yrotation Xrotation
							End Site
							{
								OFFSET 0.000000 0.000000 0.000000
							}
						}
					}
				}
				JOINT LeftShoulder
				{
					OFFSET 0.000000 0.000000 0.000000
					CHANNELS 3 Zrotation Yrotation Xrotation
					JOINT LeftArm
					{
						OFFSET 3.362410 1.200890 -0.311210
						CHANNELS 3 Zrotation Yrotation Xrotation
						JOINT LeftForeArm
						{
							OFFSET 4.983000 -0.000000 -0.000000
							CHANNELS 3 Zrotation Yrotation Xrotation
							JOINT LeftHand
							{
								OFFSET 3.483560 -0.000000 -0.000000
								CHANNELS 3 Zrotation Yrotation Xrotation
								JOINT LeftFingerBase
								{
									OFFSET 0.000000 0.000000 0.000000
									CHANNELS 3 Zrotation Yrotation Xrotation
									JOINT LeftHandIndex1
									{
										OFFSET 0.715260 -0.000000 -0.000000
										CHANNELS 3 Zrotation Yrotation Xrotation
										End Site
										{
											OFFSET 0.000000 0.000000 0.000000
										}
									}
								}
								JOINT LThumb
								{
									OFFSET 0.000000 0.000000 0.000000
									CHANNELS 3 Zrotation Yrotation Xrotation
									End Site
									{
										OFFSET 0.000000 0.000000 0.000000
									}
								}
							}
						}
					}
				}
				JOINT RightShoulder
				{
					OFFSET 0.000000 0.000000 0.000000
					CHANNELS 3 Zrotation Yrotation Xrotation
					JOINT RightArm
					{
						OFFSET -3.136600 1.374050 -0.404650
						CHANNELS 3 Zrotation Yrotation Xrotation
						JOINT RightForeArm
						{
							OFFSET -5.241900 -0.000000 -0.000000
							CHANNELS 3 Zrotation Yrotation Xrotation
							JOINT RightHand
							{
								OFFSET -3.444170 -0.000000 -0.000000
								CHANNELS 3 Zrotation Yrotation Xrotation
								JOINT RightFingerBase
								{
									OFFSET 0.000000 0.000000 0.000000
									CHANNELS 3 Zrotation Yrotation Xrotation
									JOINT RightHandIndex1
									{
										OFFSET -0.622530 -0.000000 -0.000000
										CHANNELS 3 Zrotation Yrotation Xrotation
										End Site
										{
											OFFSET 0.000000 0.000000 0.000000
										}
									}
								}
								JOINT RThumb
								{
									OFFSET 0.000000 0.000000 0.000000
									CHANNELS 3 Zrotation Yrotation Xrotation
									End Site
									{
										OFFSET 0.000000 0.000000 0.000000
									}
								}
							}
						}
					}
				}
			}
		}
	}
}
MOTION
Frames: 6
Frame Time: 0.008333
15.261947 17.888348 16.448239 4.842734 -69.754602 3.787180 -1.739715 -0.341137 0.007913 -16.832645 6.830073 -21.033669 2.736007 11.082106 32.043793 0.463376 0.734799 -12.188212 0.890700 -6.015500 -16.829500 1.981024 0.995561 -0.730676 5.914837 0.951295 -28.451343 -6.373486 -14.673834 45.964394 2.301023 -12.572881 -12.007236 -0.007200 0.546800 -1.502600 -4.944555 -4.068707 6.246939 1.774898 -5.391539 0.010156 5.056651 -3.259167 1.845745 -21.076289 -21.813636 9.473777 24.340391 -30.458811 2.252104 8.130900 -15.366100 9.413600 -0.623284 4.943672 -1.235219 -70.719458 -1.593314 12.490772 18.718413 -29.738155 -4.817860 0.727059 -1.052665 7.084125 5.422207 35.994589 2.763300 -7.125000 0.000000 0.000000 -36.404800 63.391200 -17.390400 -1.879618 -2.127369 -1.134245 46.058733 6.263929 8.142889 -16.579325 27.744954 -3.866725 0.751163 -0.053921 29.693756 -23.213209 11.057025 -4.679200 7.125000 0.000000 0.000000 2.236000 -18.365800 1.418700 
15.241472 17.889733 16.400463 5.535050 -69.473040 3.054596 -1.745958 -0.342578 0.009042 -16.841519 6.773903 -20.958293 2.730169 11.061008 31.979774 0.536512 0.093457 -11.865611 0.632100 -5.086900 -14.156500 1.970736 0.995774 -0.731243 5.094291 1.078093 -27.903509 -6.252040 -14.580885 45.501006 2.353101 -12.730488 -11.709615 -0.046700 1.394800 -3.835900 -5.066947 -4.196614 6.345279 1.805410 -5.566736 0.075271 5.183877 -3.363098 1.941695 -21.469370 -21.800900 9.696941 24.618685 -30.436325 1.964924 8.285900 -15.390500 9.398700 -0.604114 4.947517 -1.223635 -70.270188 -1.640418 11.146209 18.615294 -29.633942 -4.757797 0.713619 -1.052495 7.626601 5.573574 35.885910 2.849800 -7.125000 0.000000 0.000000 -36.107200 63.342200 -17.187800 -1.897466 -2.103923 -1.142841 44.739460 6.521184 7.730165 -15.803365 26.618682 -3.500493 0.744633 -0.032474 29.885280 -23.029083 10.317904 -4.312200 7.125000 0.000000 0.000000 2.347400 -19.199400 1.446100 
15.224063 17.886963 16.351005 6.034646 -69.614982 2.718565 -1.732955 -0.350264 -0.002245 -16.895713 7.033878 -21.333559 2.768772 11.116702 32.161403 0.588146 -0.203145 -11.984436 0.523400 -4.636600 -12.874900 1.974872 0.990089 -0.731985 4.244629 1.763932 -27.475904 -6.095507 -14.436013 44.871208 2.375450 -12.748864 -11.253005 -0.030000 1.117200 -3.071300 -5.009265 -4.074759 6.305713 1.748145 -5.403175 0.077862 5.060287 -3.273218 1.913357 -21.326555 -21.923043 9.845751 24.466018 -30.543025 1.750048 8.202700 -15.457100 9.278500 -0.583167 4.923882 -1.225554 -69.599865 -1.747646 10.357642 18.528807 -29.543980 -4.704818 0.695781 -1.051271 7.819679 6.193639 35.897002 3.234000 -7.125000 0.000000 0.000000 -35.489100 63.523800 -17.004500 -1.918733 -2.096724 -1.171397 43.651993 6.275760 7.272112 -15.045130 25.490886 -3.165315 0.728584 -0.017849 30.249759 -22.470309 9.597967 -3.892000 7.125000 0.000000 0.000000 2.737900 -20.026800 1.636600 
15.205763 17.883798 16.301943 5.493528 -69.586692 3.366597 -1.716969 -0.350006 -0.011492 -16.556497 7.240763 -21.673537 2.792862 11.159456 32.283914 0.600324 -0.267044 -12.014023 0.666100 -5.219400 -14.535300 1.974374 0.987957 -0.733998 3.790006 2.410202 -27.010893 -5.942941 -14.288184 44.252075 2.346267 -12.592052 -10.965381 -0.000400 -0.128900 0.354200 -4.630197 -4.003908 6.331327 1.839575 -5.299489 0.070595 5.053192 -3.206850 1.825627 -21.529349 -22.114600 9.972894 24.369151 -30.782757 1.612308 8.140400 -15.583300 9.300800 -0.555274 4.913950 -1.217708 -69.138560 -1.769475 9.922855 18.538318 -29.573174 -4.707543 0.689867 -1.047086 7.614253 6.544937 35.955294 3.457200 -7.125000 0.000000 0.000000 -35.201200 63.669600 -16.968100 -1.938905 -2.071557 -1.195999 42.456711 5.713383 7.046972 -14.473401 24.632097 -2.930575 0.708393 -0.021273 30.407208 -21.496654 9.394557 -3.633800 7.125000 0.000000 0.000000 3.443500 -20.298000 2.038800 
15.189343 17.875588 16.251497 5.131986 -69.202208 3.752361 -1.707407 -0.351392 -0.023662 -16.229048 7.230478 -21.859518 2.819734 11.204431 32.416228 0.594550 -0.333460 -11.786610 0.905600 -6.064300 -16.971000 1.961682 0.989889 -0.736831 3.351365 2.538081 -26.525045 -5.794874 -14.151475 43.648084 2.350946 -12.550635 -10.494437 -0.020600 -0.925700 2.544500 -4.209767 -3.969095 6.433160 1.901181 -5.240922 0.136917 4.948405 -3.175895 1.834672 -21.833724 -22.410831 10.085364 24.740744 -31.194493 1.339225 8.181900 -15.791700 9.434600 -0.532602 4.914159 -1.205013 -68.683652 -2.188590 9.182743 18.440954 -29.460106 -4.650240 0.684630 -1.044209 7.966132 6.484652 35.984858 3.422200 -7.125000 0.000000 0.000000 -35.289700 63.670700 -17.017000 -1.956940 -2.028351 -1.211062 41.459873 4.927375 6.674815 -14.047169 23.983559 -2.748349 0.701694 -0.035413 30.352904 -21.048335 9.759726 -3.702600 7.125000 0.000000 0.000000 3.772100 -19.919900 2.266100 
15.171539 17.876280 16.201050 5.619105 -68.861466 3.163760 -1.706908 -0.354310 -0.028264 -16.196343 7.081749 -21.779144 2.853143 11.250378 32.573104 0.598007 -0.431896 -11.638015 0.968000 -6.264200 -17.552800 1.948560 0.990004 -0.733605 2.639740 2.388798 -25.957313 -5.649356 -14.029653 43.064807 2.420505 -12.774031 -10.033988 -0.053500 -1.493200 4.107100 -4.040774 -4.012673 6.724198 1.859671 -5.298279 0.175012 4.789890 -3.200548 1.716569 -21.948519 -22.515619 10.274525 24.987245 -31.321627 1.046768 8.249800 -15.877600 9.416200 -0.508420 4.907476 -1.205797 -67.989923 -2.257395 8.451310 18.366105 -29.379107 -4.599789 0.676620 -1.040502 8.129272 6.676460 36.223456 3.561200 -7.125000 0.000000 0.000000 -35.387000 63.912700 -17.268300 -1.982629 -1.997872 -1.227876 40.557398 4.193017 6.946846 -13.665795 23.382680 -2.579094 0.704563 -0.050970 30.371725 -21.086732 10.265404 -3.913200 7.125000 0.000000 0.000000 3.749200 -19.365600 2.298800 
